<?xml version="1.0" encoding="UTF-8"?>
<svg width="208px" height="208px" viewBox="0 0 208 208" version="1.1" xmlns="http://www.w3.org/2000/svg" xmlns:xlink="http://www.w3.org/1999/xlink">
    <!-- Generator: Sketch 54.1 (76490) - https://sketchapp.com -->
    <title>Group 85</title>
    <desc>Created with Sketch.</desc>
    <g id="Final" stroke="none" stroke-width="1" fill="none" fill-rule="evenodd">
        <g id="Yudiz-Branding" transform="translate(-1519.000000, -2435.000000)">
            <g id="Group-32-Copy" transform="translate(0.000000, 2045.000000)">
                <g id="Group-18" transform="translate(1519.000000, 390.000000)">
                    <g id="Group-85" transform="translate(0.662513, 0.662807)">
                        <polygon id="Stroke-2" stroke="#F2F2F2" stroke-linecap="square" points="-7.10542736e-14 206.381569 206.285286 206.381569 206.285286 7.2475359e-13 -7.10542736e-14 7.2475359e-13"></polygon>
                        <polygon id="Fill-3" fill="#2880BA" points="138.845218 103.147567 120.012031 70.6319491 157.673996 70.6319491"></polygon>
                        <polygon id="Fill-4" fill="#3B96D2" points="138.845218 103.147567 101.306731 103.147567 120.012031 70.6319491"></polygon>
                        <polygon id="Fill-5" fill="#C03C2B" points="120.012031 135.672741 101.306731 103.147567 138.845218 103.147567"></polygon>
                        <polygon id="Fill-6" fill="#E54C3B" points="120.012031 135.672741 82.4779534 135.672741 101.306731 103.147567"></polygon>
                        <polygon id="Fill-7" fill="#884C9D" points="94.3199887 103.143158 57.0790954 103.159327 75.7778544 70.6407689"></polygon>
                        <polygon id="Fill-8" fill="#AC7AB4" points="94.3199887 103.143158 75.6257131 135.668331 57.0790954 103.159327"></polygon>
                        <polygon id="Fill-9" fill="#129F84" points="75.7844693 70.6481187 38.5478389 70.6664933 57.242041 38.1427901"></polygon>
                        <polygon id="Fill-10" fill="#26B898" points="75.7844693 70.6481187 57.0935746 103.172557 38.5478389 70.6664933"></polygon>
                        <polygon id="Fill-11" fill="#F09B21" points="101.183254 168.183729 82.4779534 135.672741 120.012031 135.672741"></polygon>
                        <polygon id="Fill-12" fill="#EFC31A" points="101.183254 168.183729 63.649323 168.183729 82.4779534 135.672741"></polygon>
                        <polygon id="Fill-13" fill="#0C1C3C" points="157.673996 70.6319491 138.845218 38.1133908 176.491748 38.1133908"></polygon>
                        <polygon id="Fill-14" fill="#3E4965" points="157.673996 70.6319491 120.012031 70.6319491 138.845218 38.1133908"></polygon>
                    </g>
                </g>
            </g>
        </g>
    </g>
</svg>